<svg id="visual" viewBox="0 0 900 200" width="900" height="200" xmlns="http://www.w3.org/2000/svg" xmlns:xlink="http://www.w3.org/1999/xlink" version="1.1"><path d="M0 94L21.5 96C43 98 86 102 128.8 98.8C171.7 95.7 214.3 85.3 257.2 74.8C300 64.3 343 53.7 385.8 62C428.7 70.3 471.3 97.7 514.2 105.5C557 113.3 600 101.7 642.8 95.7C685.7 89.7 728.3 89.3 771.2 89.7C814 90 857 91 878.5 91.5L900 92L900 201L878.5 201C857 201 814 201 771.2 201C728.3 201 685.7 201 642.8 201C600 201 557 201 514.2 201C471.3 201 428.7 201 385.8 201C343 201 300 201 257.2 201C214.3 201 171.7 201 128.8 201C86 201 43 201 21.5 201L0 201Z" fill="#ff8d05"></path><path d="M0 67L21.5 73.5C43 80 86 93 128.8 98.2C171.7 103.3 214.3 100.7 257.2 97.8C300 95 343 92 385.8 88.8C428.7 85.7 471.3 82.3 514.2 85.7C557 89 600 99 642.8 99.5C685.7 100 728.3 91 771.2 93.7C814 96.3 857 110.7 878.5 117.8L900 125L900 201L878.5 201C857 201 814 201 771.2 201C728.3 201 685.7 201 642.8 201C600 201 557 201 514.2 201C471.3 201 428.7 201 385.8 201C343 201 300 201 257.2 201C214.3 201 171.7 201 128.8 201C86 201 43 201 21.5 201L0 201Z" fill="#ee7313"></path><path d="M0 152L21.5 147C43 142 86 132 128.8 130.2C171.7 128.3 214.3 134.7 257.2 130.5C300 126.3 343 111.7 385.8 111.5C428.7 111.3 471.3 125.7 514.2 128.8C557 132 600 124 642.8 119.2C685.7 114.3 728.3 112.7 771.2 115.5C814 118.3 857 125.7 878.5 129.3L900 133L900 201L878.5 201C857 201 814 201 771.2 201C728.3 201 685.7 201 642.8 201C600 201 557 201 514.2 201C471.3 201 428.7 201 385.8 201C343 201 300 201 257.2 201C214.3 201 171.7 201 128.8 201C86 201 43 201 21.5 201L0 201Z" fill="#db5a1a"></path><path d="M0 145L21.5 145.5C43 146 86 147 128.8 149.8C171.7 152.7 214.3 157.3 257.2 160.2C300 163 343 164 385.8 159C428.7 154 471.3 143 514.2 137.5C557 132 600 132 642.8 131.2C685.7 130.3 728.3 128.7 771.2 131C814 133.3 857 139.7 878.5 142.8L900 146L900 201L878.5 201C857 201 814 201 771.2 201C728.3 201 685.7 201 642.8 201C600 201 557 201 514.2 201C471.3 201 428.7 201 385.8 201C343 201 300 201 257.2 201C214.3 201 171.7 201 128.8 201C86 201 43 201 21.5 201L0 201Z" fill="#c6421e"></path><path d="M0 155L21.5 154C43 153 86 151 128.8 154.7C171.7 158.3 214.3 167.7 257.2 169.2C300 170.7 343 164.3 385.8 159.5C428.7 154.7 471.3 151.3 514.2 152.2C557 153 600 158 642.8 160.7C685.7 163.3 728.3 163.7 771.2 164.2C814 164.7 857 165.3 878.5 165.7L900 166L900 201L878.5 201C857 201 814 201 771.2 201C728.3 201 685.7 201 642.8 201C600 201 557 201 514.2 201C471.3 201 428.7 201 385.8 201C343 201 300 201 257.2 201C214.3 201 171.7 201 128.8 201C86 201 43 201 21.5 201L0 201Z" fill="#b0291f"></path></svg>